#tb 0: 1/25
0,          0,          0,        1,   149760, 0x88619f80
0,          1,          1,        1,   149760, 0x550bdaf0
0,          2,          2,        1,   149760, 0x99440a14
0,          3,          3,        1,   149760, 0xcc2c2049
0,          4,          4,        1,   149760, 0x46927368
0,          5,          5,        1,   149760, 0x53cdb3fe
0,          6,          6,        1,   149760, 0x654df025
0,          7,          7,        1,   149760, 0x024d24bc
0,          8,          8,        1,   149760, 0x409138c2
0,          9,          9,        1,   149760, 0xfbb47c48
0,         10,         10,        1,   149760, 0x18caa19d
0,         11,         11,        1,   149760, 0x0f88c2e5
0,         12,         12,        1,   149760, 0x1c16aa2d
0,         13,         13,        1,   149760, 0x60bfcce8
0,         14,         14,        1,   149760, 0x1c38e3d3
0,         15,         15,        1,   149760, 0x0d5b044a
0,         16,         16,        1,   149760, 0x93d21593
0,         17,         17,        1,   149760, 0xdf283910
0,         18,         18,        1,   149760, 0x03324c23
0,         19,         19,        1,   149760, 0x3b175b7b
0,         20,         20,        1,   149760, 0xb91b9a7e
0,         21,         21,        1,   149760, 0x734fbbe7
0,         22,         22,        1,   149760, 0xfc3fea48
0,         23,         23,        1,   149760, 0x6609103e
0,         24,         24,        1,   149760, 0x3f5916fa
0,         25,         25,        1,   149760, 0x08e43f4d
0,         26,         26,        1,   149760, 0xc84e5471
0,         27,         27,        1,   149760, 0xbd4e5c8d
0,         28,         28,        1,   149760, 0x4a4d3995
0,         29,         29,        1,   149760, 0x662163c0
0,         30,         30,        1,   149760, 0xda28671f
0,         31,         31,        1,   149760, 0x19e1878e
0,         32,         32,        1,   149760, 0x19807e67
